<svg width="788" height="178" viewBox="0 0 788 178" fill="none" xmlns="http://www.w3.org/2000/svg">
<path fill-rule="evenodd" clip-rule="evenodd" d="M52.0745 27.9308C52.0745 12.5051 64.5795 0 80.0053 0C95.4311 0 107.936 12.5051 107.936 27.9308L107.936 119.298H124.032V88.0532C124.032 78.118 132.086 70.0638 142.021 70.0638C151.957 70.0638 160.011 78.1179 160.011 88.0532V119.298V128.412V131.606C160.011 144.679 149.413 155.277 136.34 155.277H133.175L133.146 155.277H107.936L107.936 178H52.0745L52.0745 121.191L35.9787 121.191H23.6702C10.5975 121.191 2.80142e-06 110.594 2.80142e-06 97.5213L0 85.2127L2.80142e-06 54.9149C2.80142e-06 44.9796 8.05412 36.9255 17.9894 36.9255C27.9246 36.9255 35.9787 44.9796 35.9787 54.9149V85.2127H52.0745L52.0745 27.9308Z" fill="#6AB200"/>
<path d="M785.39 130.215L747.256 118.701C747.091 116.472 747.173 108.383 747.503 94.4336C747.669 89.7288 747.834 84.8589 747.999 79.8239C748.164 75.6143 748.246 73.1381 748.246 72.3952L750.475 30.2994C750.558 28.1534 750.516 24.5629 750.351 19.5279L750.227 13.7088L750.104 8.75631C750.186 5.28959 752.002 3.14353 755.551 2.31813C762.154 0.749853 770.285 0.0895268 779.942 0.337149C782.831 0.337149 784.234 1.53399 784.152 3.92767C784.152 4.01021 784.234 6.15627 784.399 10.3659L784.647 16.9278L784.894 24.9756C785.142 31.6614 785.266 37.6043 785.266 42.8044C785.348 49.3251 785.307 54.5664 785.142 58.5284C785.142 59.2712 785.266 69.7127 785.513 89.8526C785.596 99.0972 785.637 106.691 785.637 112.634C785.637 120.558 785.555 126.418 785.39 130.215ZM747.256 118.701L785.513 116.596L785.637 119.443L785.885 123.777C786.133 127.986 786.215 131.742 786.133 135.044L786.875 145.691L787.495 156.958C787.907 165.46 788.031 171.031 787.866 173.673C787.536 176.892 785.926 178.254 783.037 177.759C779.405 177.181 773.999 176.974 766.818 177.139L758.399 177.387L750.723 177.263C747.338 177.098 745.77 175.406 746.018 172.187L746.761 167.606L747.503 163.149C748.329 156.958 748.576 149.406 748.246 140.491L747.751 129.348L747.256 118.701Z" fill="black"/>
<path d="M644.864 78.4621V72.8906C644.864 69.6715 644.823 67.8143 644.74 67.3191L644.616 62.3666L644.369 57.0427C643.791 53.1633 642.264 51.2236 639.788 51.2236C638.385 51.2236 635.867 51.1411 632.235 50.976L622.826 50.6046C614.737 50.4395 608.629 50.8522 604.502 51.8427C601.2 52.6681 599.508 51.0585 599.425 47.014C600.086 41.3187 600.54 35.9123 600.787 30.7948C600.952 26.8328 600.994 22.9534 600.911 19.1565C600.746 11.9755 600.663 8.34368 600.663 8.26114C601.654 5.20713 603.635 3.51505 606.606 3.18488C612.549 2.68964 617.832 2.40075 622.454 2.31821C628.645 2.23567 637.394 2.44202 648.702 2.93726L661.331 3.43251L673.217 3.68013C679.737 3.68013 686.836 3.43251 694.512 2.93726C700.29 2.6071 706.646 2.15313 713.579 1.57534C714.652 1.4928 717.046 1.32772 720.76 1.08009C724.392 0.832473 726.827 0.667392 728.065 0.584851C729.551 0.50231 730.789 1.36899 731.779 3.18488C732.77 4.91824 733.059 6.6516 732.646 8.38495C730.087 19.7756 728.767 30.217 728.684 39.7092C728.684 44.7442 725.96 47.3442 720.513 47.5093C714.9 47.5918 707.719 48.0045 698.969 48.7474C691.871 49.3252 688.239 54.8967 688.074 65.4619C688.074 72.3128 687.95 82.6716 687.703 96.5385L687.455 112.386L687.331 138.387L687.455 148.663C687.62 156.917 687.579 163.892 687.331 169.587C687.166 174.622 684.772 177.305 680.15 177.635L666.779 177.882L653.407 177.759C648.867 178.006 646.226 177.8 645.483 177.14C644.41 176.232 643.874 173.343 643.874 168.473L644.864 78.4621Z" fill="black"/>
<path d="M557.949 137.52C569.752 137.933 578.171 138.428 583.206 139.006C585.847 139.336 587.044 140.78 586.797 143.339L584.32 168.968C584.073 171.444 583.578 173.384 582.835 174.787C581.844 176.686 580.441 177.635 578.625 177.635H563.892H557.082C545.444 177.635 538.263 177.717 535.539 177.882C533.558 177.965 524.685 177.717 508.919 177.139L500.253 176.768L492.576 176.52C487.624 176.355 484.859 176.273 484.281 176.273H481.062L477.348 175.53C474.541 174.539 472.767 172.558 472.024 169.587C471.694 168.266 470.786 144.784 469.3 99.1385C467.897 54.1538 467.195 29.4328 467.195 24.9756C467.278 16.8041 471.363 9.74683 479.452 3.8039C483.744 0.667351 498.354 -0.52949 523.282 0.213377L537.767 0.832432L544.577 1.08005L551.015 1.32768C560.507 1.74038 566.615 1.78165 569.339 1.45149C573.384 0.956244 575.612 2.15308 576.025 5.04201L577.635 14.4517L579.244 23.9851C580.4 31.1662 580.936 35.1694 580.854 35.9948C580.854 38.0583 579.987 39.2139 578.254 39.4615C577.758 39.544 574.168 39.1313 567.482 38.2234L562.653 37.6043L557.33 36.8615L545.691 35.3757C524.313 32.9821 511.189 32.9408 506.319 35.2519C504.669 36.0773 503.719 37.7281 503.472 40.2044L503.348 43.5473L503.843 47.014C504.338 50.3982 504.462 55.6395 504.215 62.738L503.719 72.8905L503.1 83.5383C501.945 102.77 501.738 114.945 502.481 120.063C502.894 122.951 504.256 126.501 506.567 130.71C509.291 135.58 511.767 138.015 513.996 138.015L532.691 137.272C536.983 136.942 545.402 137.025 557.949 137.52Z" fill="black"/>
<path d="M378.175 112.139C387.584 110.24 392.496 109.167 392.908 108.92C395.632 107.682 396.87 105.288 396.623 101.739L395.88 97.529L395.385 95.6718L395.013 94.0623C394.27 89.9352 393.527 85.478 392.785 80.6907L391.051 68.9286C389.648 60.0968 388.162 52.6268 386.594 46.5188L386.223 44.9093L385.48 43.1759C384.737 41.9378 383.746 41.3187 382.508 41.3187L380.899 41.1949L378.918 40.8235L374.832 40.4521C372.108 40.3695 370.54 41.4425 370.127 43.6711C369.384 47.0553 369.054 52.1728 369.137 59.0237V66.5762V71.7763C368.889 78.6272 368.765 85.1892 368.765 91.4622V97.1576C368.848 99.9639 369.137 102.399 369.632 104.462C370.953 110.405 373.8 112.964 378.175 112.139ZM443.547 139.872C445.446 144.495 446.973 148.415 448.128 151.634L448.376 152.377L448.747 153.492L449.985 156.711C451.058 159.93 452.008 162.777 452.833 165.254C455.227 172.93 455.887 176.974 454.814 177.387C454.731 177.47 453.658 177.552 451.595 177.635C449.201 177.717 446.601 177.8 443.795 177.882C435.788 177.965 429.185 177.8 423.985 177.387C422.747 177.305 420.807 175.035 418.166 170.578C417.175 168.927 416.267 167.193 415.442 165.377C414.617 163.809 414.08 162.695 413.832 162.035L407.642 145.568C406.074 141.688 403.185 139.872 398.975 140.12C394.683 140.285 390.391 140.987 386.099 142.225L380.403 143.711C378.092 144.288 375.74 144.784 373.346 145.196C371.53 145.444 370.499 146.847 370.251 149.406L369.384 158.939L369.013 163.273L368.641 167.358C368.064 172.889 367.032 175.695 365.546 175.778C349.368 176.521 340.454 177.016 338.803 177.263C334.676 177.759 332.489 176.067 332.241 172.187C332.076 169.711 332.86 154.482 334.593 126.501L335.584 110.034L336.079 102.11L336.574 94.6813C337.235 83.7034 337.647 76.6049 337.812 73.3858V72.0239V70.662C337.73 66.2048 337.854 57.4142 338.184 44.2902L338.431 29.3091C338.597 24.0264 338.679 19.7756 338.679 16.5565L338.803 11.6041C339.133 6.48653 343.508 3.55634 351.927 2.81347C355.228 2.48331 358.241 2.23568 360.965 2.0706L367.403 1.82298C372.438 1.6579 377.597 1.28646 382.88 0.708678C384.035 0.543597 386.181 0.543597 389.318 0.708678H392.785L395.756 0.584868C400.461 0.172164 403.68 2.64839 405.413 8.01354C407.972 15.9374 409.623 21.3439 410.366 24.2328L414.328 39.5854L418.042 54.8141C421.096 67.2778 423.82 77.389 426.214 85.1479C426.956 87.459 428.029 91.0083 429.433 95.7956L431.29 102.358L433.271 109.043C436.407 120.104 438.223 126.336 438.718 127.739C439.544 129.968 440.411 132.196 441.319 134.425L443.547 139.872Z" fill="black"/>
<path d="M290.764 137.52C302.568 137.933 310.987 138.428 316.022 139.006C318.663 139.336 319.86 140.78 319.612 143.339L317.136 168.968C316.888 171.444 316.393 173.384 315.65 174.787C314.66 176.686 313.257 177.635 311.441 177.635H296.707H289.898C278.259 177.635 271.078 177.717 268.354 177.882C266.373 177.965 257.5 177.717 241.735 177.139L233.068 176.768L225.392 176.52C220.439 176.355 217.674 176.273 217.097 176.273H213.877L210.163 175.53C207.357 174.539 205.582 172.558 204.839 169.587C204.509 168.266 203.601 144.784 202.115 99.1385C200.712 54.1538 200.011 29.4328 200.011 24.9756C200.093 16.8041 204.179 9.74683 212.268 3.8039C216.56 0.667351 231.17 -0.52949 256.097 0.213377L270.583 0.832432L277.393 1.08005L283.831 1.32768C293.323 1.74038 299.431 1.78165 302.155 1.45149C306.199 0.956244 308.428 2.15308 308.841 5.04201L310.45 14.4517L312.06 23.9851C313.215 31.1662 313.752 35.1694 313.669 35.9948C313.669 38.0583 312.803 39.2139 311.069 39.4615C310.574 39.544 306.983 39.1313 300.298 38.2234L295.469 37.6043L290.145 36.8615L278.507 35.3757C257.129 32.9821 244.005 32.9408 239.135 35.2519C237.484 36.0773 236.535 37.7281 236.287 40.2044L236.163 43.5473L236.659 47.014C237.154 50.3982 237.278 55.6395 237.03 62.738L236.535 72.8905L235.916 83.5383C234.76 102.77 234.554 114.945 235.297 120.063C235.709 122.951 237.071 126.501 239.383 130.71C242.106 135.58 244.583 138.015 246.811 138.015L265.507 137.272C269.799 136.942 278.218 137.025 290.764 137.52Z" fill="black"/>
</svg>
