<svg width="679" height="756" viewBox="0 0 679 756" fill="none" xmlns="http://www.w3.org/2000/svg">
<path fill-rule="evenodd" clip-rule="evenodd" d="M220.976 118.524C220.976 53.0648 274.041 0 339.5 0C404.959 0 458.024 53.0649 458.024 118.524V506.237H526.325V373.651C526.325 331.491 560.503 297.314 602.663 297.314C644.823 297.314 679 331.491 679 373.651V506.237V544.911V558.467C679 613.941 634.03 658.911 578.556 658.911H565.084H565H526.325H458.024V755.337H220.976V514.272H152.675H100.444C44.9702 514.272 9.53674e-06 469.302 9.53674e-06 413.828L0 361.598L9.53674e-06 233.03C9.53674e-06 190.87 34.1774 156.692 76.3373 156.692C118.497 156.692 152.675 190.87 152.675 233.03V361.598H220.976V118.524Z" fill="#6AB200"/>
</svg>
